<?xml version="1.0" encoding="UTF-8" standalone="no"?>
<svg
   viewBox="0 0 31 7"
   version="1.1"
   id="svg217"
   sodipodi:docname="superfw-logo.svg"
   inkscape:version="1.4 (e7c3feb100, 2024-10-09)"
   xmlns:inkscape="http://www.inkscape.org/namespaces/inkscape"
   xmlns:sodipodi="http://sodipodi.sourceforge.net/DTD/sodipodi-0.dtd"
   xmlns="http://www.w3.org/2000/svg"
   xmlns:svg="http://www.w3.org/2000/svg">
  <defs
     id="defs217" />
  <sodipodi:namedview
     id="namedview217"
     pagecolor="#ffffff"
     bordercolor="#000000"
     borderopacity="0.25"
     inkscape:showpageshadow="2"
     inkscape:pageopacity="0.0"
     inkscape:pagecheckerboard="0"
     inkscape:deskcolor="#d1d1d1"
     inkscape:zoom="16.686313"
     inkscape:cx="15.132163"
     inkscape:cy="-0.35957614"
     inkscape:window-width="1440"
     inkscape:window-height="902"
     inkscape:window-x="0"
     inkscape:window-y="0"
     inkscape:window-maximized="1"
     inkscape:current-layer="svg217" />
  <path
     id="rect1"
     d="M 0 0 L 0 1 L 0 2 L 0 3 L 0 4 L 0 5 L 0 6 L 0 7 L 1 7 L 2 7 L 3 7 L 4 7 L 5 7 L 6 7 L 7 7 L 8 7 L 9 7 L 10 7 L 11 7 L 12 7 L 13 7 L 14 7 L 15 7 L 16 7 L 17 7 L 18 7 L 19 7 L 20 7 L 20 6 L 20 5 L 20 4 L 20 3 L 20 2 L 20 1 L 20 0 L 19 0 L 18 0 L 17 0 L 16 0 L 15 0 L 14 0 L 13 0 L 12 0 L 11 0 L 10 0 L 9 0 L 8 0 L 7 0 L 6 0 L 5 0 L 4 0 L 3 0 L 2 0 L 1 0 L 0 0 z M 2 1 L 3 1 L 4 1 L 4 2 L 3 2 L 2 2 L 2 3 L 3 3 L 4 3 L 4 4 L 4 5 L 3 5 L 3 6 L 2 6 L 1 6 L 1 5 L 2 5 L 3 5 L 3 4 L 2 4 L 1 4 L 1 3 L 1 2 L 2 2 L 2 1 z M 5 1 L 6 1 L 6 2 L 6 3 L 6 4 L 6 5 L 7 5 L 7 4 L 7 3 L 7 2 L 7 1 L 8 1 L 8 2 L 8 3 L 8 4 L 8 5 L 8 6 L 7 6 L 6 6 L 6 5 L 5 5 L 5 4 L 5 3 L 5 2 L 5 1 z M 9 1 L 10 1 L 11 1 L 11 2 L 12 2 L 12 3 L 12 4 L 11 4 L 11 5 L 10 5 L 10 6 L 9 6 L 9 5 L 9 4 L 9 3 L 9 2 L 9 1 z M 11 4 L 11 3 L 11 2 L 10 2 L 10 3 L 10 4 L 11 4 z M 13 1 L 14 1 L 15 1 L 15 2 L 14 2 L 14 3 L 15 3 L 15 4 L 14 4 L 14 5 L 15 5 L 15 6 L 14 6 L 13 6 L 13 5 L 13 4 L 13 3 L 13 2 L 13 1 z M 16 1 L 17 1 L 18 1 L 18 2 L 19 2 L 19 3 L 19 4 L 18 4 L 18 5 L 19 5 L 19 6 L 18 6 L 18 5 L 17 5 L 17 6 L 16 6 L 16 5 L 16 4 L 16 3 L 16 2 L 16 1 z M 18 4 L 18 3 L 18 2 L 17 2 L 17 3 L 17 4 L 18 4 z "
     style="fill:#000000;fill-opacity:1" />
  <path
     id="rect21"
     d="m 20,0 v 1 1 1 1 1 1 1 h 1 1 1 1 1 1 1 1 1 1 1 V 6 5 4 3 2 1 0 h -1 -1 -1 -1 -1 -1 -1 -1 -1 -1 z m 1,1 h 1 1 1 v 1 h -1 -1 v 1 h 1 V 4 H 22 V 5 6 H 21 V 5 4 3 2 Z m 4,0 h 1 v 1 1 1 1 h 1 V 4 3 h 1 v 1 1 h 1 V 4 3 2 1 h 1 V 2 3 4 5 H 29 V 6 H 28 V 5 H 27 V 6 H 26 V 5 H 25 V 4 3 2 Z"
     style="fill:#9f0100;fill-opacity:1" />
  <path
     id="rect34"
     d="M 2,1 V 2 H 3 4 V 1 H 3 Z M 2,2 H 1 V 3 4 H 2 3 V 5 H 4 V 4 3 H 3 2 Z M 3,5 H 2 1 V 6 H 2 3 Z M 5,1 V 2 3 4 5 H 6 V 4 3 2 1 Z M 6,5 V 6 H 7 8 V 5 4 3 2 1 H 7 V 2 3 4 5 Z M 9,1 v 1 1 1 1 1 h 1 V 5 h 1 V 4 H 10 V 3 2 h 1 V 1 h -1 z m 2,1 v 1 1 h 1 V 3 2 Z m 2,-1 v 1 1 1 1 1 h 1 1 V 5 H 14 V 4 h 1 V 3 H 14 V 2 h 1 V 1 h -1 z m 3,0 v 1 1 1 1 1 h 1 V 5 h 1 V 4 H 17 V 3 2 h 1 V 1 h -1 z m 2,1 v 1 1 h 1 V 3 2 Z m 0,3 v 1 h 1 V 5 Z"
     style="fill:#eeeeee;fill-opacity:1" />
  <path
     id="rect53"
     d="M 21 1 L 21 2 L 21 3 L 21 4 L 21 5 L 21 6 L 22 6 L 22 5 L 22 4 L 23 4 L 23 3 L 22 3 L 22 2 L 23 2 L 24 2 L 24 1 L 23 1 L 22 1 L 21 1 z M 25 1 L 25 2 L 25 3 L 25 4 L 25 5 L 26 5 L 26 4 L 26 3 L 26 2 L 26 1 L 25 1 z M 26 5 L 26 6 L 27 6 L 27 5 L 26 5 z M 27 5 L 28 5 L 28 4 L 28 3 L 27 3 L 27 4 L 27 5 z M 28 5 L 28 6 L 29 6 L 29 5 L 28 5 z M 29 5 L 30 5 L 30 4 L 30 3 L 30 2 L 30 1 L 29 1 L 29 2 L 29 3 L 29 4 L 29 5 z "
     style="fill:#eeeeee;fill-opacity:1" />
</svg>
